<?xml version="1.0" encoding="UTF-8" standalone="no"?>
<svg
   xmlns:dc="http://purl.org/dc/elements/1.1/"
   xmlns:cc="http://creativecommons.org/ns#"
   xmlns:rdf="http://www.w3.org/1999/02/22-rdf-syntax-ns#"
   xmlns:svg="http://www.w3.org/2000/svg"
   xmlns="http://www.w3.org/2000/svg"
   xmlns:sodipodi="http://sodipodi.sourceforge.net/DTD/sodipodi-0.dtd"
   xmlns:inkscape="http://www.inkscape.org/namespaces/inkscape"
   inkscape:version="1.0beta1 (32d4812, 2019-09-19)"
   height="20"
   width="20"
   sodipodi:docname="badgr-logo.svg"
   id="svg843"
   version="1.1"
   viewBox="0 0 20 20">
  <metadata
     id="metadata849">
    <rdf:RDF>
      <cc:Work
         rdf:about="">
        <dc:format>image/svg+xml</dc:format>
        <dc:type
           rdf:resource="http://purl.org/dc/dcmitype/StillImage" />
        <dc:title>Badgr: Pathways Logo</dc:title>
      </cc:Work>
    </rdf:RDF>
  </metadata>
  <defs
     id="defs847" />
  <sodipodi:namedview
     inkscape:current-layer="svg843"
     inkscape:window-maximized="0"
     inkscape:window-y="23"
     inkscape:window-x="0"
     inkscape:cy="26.916402"
     inkscape:cx="20.386031"
     inkscape:zoom="11.64445"
     showgrid="false"
     id="namedview845"
     inkscape:window-height="907"
     inkscape:window-width="1600"
     inkscape:pageshadow="2"
     inkscape:pageopacity="0"
     guidetolerance="10"
     gridtolerance="10"
     objecttolerance="10"
     borderopacity="1"
     inkscape:document-rotation="0"
     bordercolor="#666666"
     pagecolor="#ffffff" />
  <title
     id="title833">Badgr: Pathways Logo</title>
  <path
     fill="#B5445B"
     d="M 19.27941,15.056008 10.83743,19.941279 2.395952,15.056008 V 5.285468 L 10.83743,0.4001978 19.27941,5.285468 Z"
     id="path835"
     inkscape:connector-curvature="0"
     style="opacity:1;fill-rule:evenodd;stroke-width:0.501722;stop-opacity:1" />
  <path
     fill="#FFF"
     d="M 18.987909,9.7287209 14.359521,6.360659 12.526227,4.8273956 11.467092,4.4240108 9.8670991,5.5207758 8.0619022,5.6196151 5.9817615,6.6165373 3.4179604,8.0203564 1.1983409,8.6364714 v 1.4850976 l 0.607084,0.9613 1.7485023,0.559421 4.7472966,0.669297 8.9477162,3.753887 1.3983,-0.964812 0.265411,-0.330635 z"
     id="path837"
     inkscape:connector-curvature="0"
     style="opacity:1;fill-rule:evenodd;stroke-width:0.501722;stop-opacity:1" />
  <path
     d="M 10.820873,19.458622 2.6478167,14.729387 v -3.210019 c 0.4881758,0.124929 1.1128201,0.235809 1.9376516,0.358731 l 0.017059,0.0025 0.016557,0.0025 c 2.2848435,0.344181 3.3108656,0.891058 3.3836154,0.931196 a 12.166766,12.166766 0 0 1 4.1181373,4.304778 c 0.225775,0.399371 0.426464,0.809779 0.598555,1.22069 l 0.0065,0.01606 -1.90504,1.102284 z M 6.6350039,8.720259 c -0.00702,0 -0.013547,0.00151 -0.020069,0.00201 A 0.38833308,0.38833308 0 0 1 6.6610929,8.693671 0.26591283,0.26591283 0 0 1 6.7865235,8.660557 c 0.073251,0 0.1324547,0.03211 0.1786131,0.050172 C 7.0564506,8.747857 7.221015,8.8396716 7.221015,8.8396716 7.0930764,8.8582327 7.0017629,8.9866736 6.8366963,9.041863 A 0.34819529,0.34819529 0 0 1 6.7634448,9.0559113 0.19165793,0.19165793 0 0 0 6.6350039,8.720259 Z M 12.993833,8.386112 c -0.143995,0 -0.345185,-0.1344616 -0.345185,-0.1344616 0.167575,-0.1068669 0.197678,-0.336154 0.197678,-0.336154 a 0.24433877,0.24433877 0 0 1 -0.19818,0.098839 c -0.03612,0 -0.06021,-0.00702 -0.06021,-0.00702 C 12.633086,7.8999468 12.572386,7.79308 12.572386,7.79308 a 0.27845589,0.27845589 0 0 1 -0.248854,0.1369702 0.35572112,0.35572112 0 0 1 -0.10185,-0.015052 c 0.04867,-0.1585442 0.01003,-0.3471918 -0.008,-0.4159278 l -0.007,-0.026591 c -0.002,0.00502 -0.0065,0.012041 -0.01054,0.018564 -0.0883,0.1379736 -0.631668,0.4896809 -0.995417,0.5769806 a 0.71946981,0.71946981 0 0 1 -0.160049,0.024584 c -0.159046,0 -0.03813,-0.1314512 -0.03813,-0.1314512 0,0 0.01254,-0.022577 0.03763,-0.0582 l 10e-4,-0.001 c 0.08529,-0.1194099 0.314079,-0.3888348 0.723484,-0.5057361 0.04014,-0.01154 0.08028,-0.022076 0.121918,-0.03211 a 2.3907069,2.3907069 0 0 1 0.551895,-0.07275 c 0.337659,0 0.639194,0.1003444 0.758604,0.3948554 0.07576,0.1871425 0.163562,0.4405122 0.22126,0.67582 0.04766,0.1941665 0.07476,0.3762917 0.0577,0.4997154 a 0.22577504,0.22577504 0 0 1 -0.01907,0.088303 h -0.005 c -0.02258,0.045155 -0.0587,0.072248 -0.111884,0.072248 a 0.21323199,0.21323199 0 0 1 -0.05168,-0.00702 C 13.044507,8.9540616 12.770566,8.6334611 12.770566,8.6334611 12.938141,8.572251 13.06006,8.3735689 13.06006,8.3735689 a 0.16055114,0.16055114 0 0 1 -0.06623,0.012543 z M 2.1917511,9.2836932 C 2.1551253,9.0820008 1.7838508,8.711228 1.64086,8.5742578 1.9634674,8.488965 2.5800841,8.3259053 3.3206263,8.1317388 4.0210306,7.9481084 6.5717869,5.9592811 8.4783317,5.6983855 a 11.793987,11.793987 0 0 1 0.8122885,-0.081781 0.70742847,0.70742847 0 0 0 0.1605511,-0.00602 c 0.168077,0.00251 0.4304778,0.011038 0.7596077,0.036124 a 21.950352,21.950352 0 0 1 1.307488,0.1695821 c 0.222765,0.035121 0.593036,0.1163996 1.000435,0.2117269 0.883031,0.2333008 1.811719,0.5950426 2.599925,1.1574734 2.047027,1.4600119 3.219552,2.5341994 3.286783,2.6862213 C 18.470633,10.018215 15.030324,9.6941021 13.799599,8.6123887 13.750932,8.2260626 13.582855,7.769997 13.486022,7.5316789 13.381664,7.274797 13.119263,6.9682447 12.459498,6.9682447 c -0.305549,0 -0.604073,0.067231 -0.800748,0.1239254 -0.05318,0.015052 -0.103355,0.033114 -0.151521,0.051677 A 5.4752957,5.4752957 0 0 0 10.871547,7.01641 C 10.29858,6.9321207 9.388456,6.7971574 7.449801,7.3881863 5.5116477,7.9797169 3.3707985,9.0774853 3.0341428,9.4327047 c -0.3371574,0.3547177 0.033615,0.8614573 0.3371574,1.0812113 0.3030403,0.219253 0.6236409,0.591029 0.7415456,0.286985 0.1179048,-0.304043 0.067231,-0.371274 0.5057361,-0.337659 0.4380036,0.03362 2.881893,0.304044 4.0278268,0.03362 1.1464355,-0.270429 2.2928713,-0.5915308 2.5116223,-0.8278421 0,0 -0.01706,0.2869852 -0.101348,0.4390071 0,0 0.489179,-0.06723 0.657256,-0.1856373 0,0 -0.01656,0.2026963 -0.134462,0.2874873 0,0 0.285982,0.101348 0.505736,-0.03412 0,0 -0.185637,0.169081 -0.135465,0.321103 0.05118,0.152022 0.522795,0.202696 1.517209,0.321102 0.901595,0.106867 3.049468,1.588453 4.736258,4.368496 l -0.505736,0.293006 a 3653.0653,3653.0653 0 0 0 -2.66264,-1.604006 c -1.601498,-0.962805 -4.213966,-1.993343 -6.506335,-2.077632 -1.6471544,-0.06071 -3.5326269,-0.07576 -5.2550396,-0.482657 0.4866706,0.04164 1.05161,0.07576 1.4835929,0.06021 0.1740976,-0.0065 0.3421746,-0.01505 0.5032275,-0.02258 0.6918751,-0.03361 1.2387524,-0.06021 1.6155458,0.08329 a 0.10138423,0.10138423 0 0 0 0.071746,-0.189651 C 6.5311471,11.088395 5.9662078,11.11599 5.25025,11.150608 c -0.1600494,0.0075 -0.3271229,0.01555 -0.5007188,0.02208 -0.9081174,0.03311 -2.4514153,-0.06472 -2.9717013,-0.341673 0.090812,-0.26491 0.4540587,-1.321035 0.4134191,-1.5473118 z m 8.2337649,-3.9324995 -0.02057,0.00151 c -0.0281,0.00251 -0.05519,0.00502 -0.08228,0.00652 l -0.03512,0.00201 a 2.1523888,2.1523888 0 0 1 -0.158042,0.00251 11.73077,11.73077 0 0 0 0.13998,-0.099341 C 10.369825,5.1941546 10.467159,5.1249169 10.560479,5.0581878 10.938778,4.7877595 11.269413,4.5524517 11.4987,4.5148225 a 0.38080724,0.38080724 0 0 1 0.06071,-0.00602 c 0.02007,0 0.03863,0.00201 0.05569,0.00602 0.174097,0.038633 0.488175,0.236813 0.76914,0.4565674 -0.008,0.030103 -0.01254,0.062715 -0.01555,0.09332 a 1.4901153,1.4901153 0 0 0 -0.0055,0.081781 0.43549497,0.43549497 0 0 1 -0.0075,0.066729 c -0.0085,0.043148 -0.02308,0.070241 -0.03813,0.081781 l -0.002,0.00151 a 0.02408267,0.02408267 0 0 1 -0.01254,0.00502 0.05518946,0.05518946 0 0 1 -0.02509,-0.00853 C 12.22374,5.2639009 12.19866,5.16456 12.19414,5.1324497 l -0.01304,-0.093822 -0.08429,0.042145 c -0.03512,0.01756 -0.07225,0.040138 -0.109375,0.061712 -0.04014,0.023581 -0.09533,0.056695 -0.130448,0.069238 0.01003,-0.1730942 -0.165067,-0.318092 -0.184634,-0.3341471 l -0.07024,-0.056193 -0.03412,0.082784 C 11.470102,5.140972 10.874056,5.3085473 10.404945,5.3526988 Z M 2.6483184,5.2699146 10.821375,0.54068005 18.993428,5.2699146 V 9.278676 C 17.535925,7.8537846 15.981589,6.7931436 14.370057,6.1253512 a 0.19767859,0.19767859 0 0 0 -0.03512,-0.020571 C 13.784045,5.7982282 13.268776,5.3602247 13.078122,5.146491 12.748992,4.777725 12.055612,4.26647 11.688351,4.1846893 A 0.59454095,0.59454095 0 0 0 11.559409,4.170641 c -0.33766,0 -0.715457,0.2704284 -1.1941,0.6121013 -0.09282,0.066227 -0.188647,0.1349633 -0.287988,0.204201 C 9.8284665,5.1600375 9.7005273,5.2327872 9.6343,5.2628905 A 11.852186,11.852186 0 0 0 8.432675,5.3642384 C 7.1081281,5.5448585 5.5487751,6.4810723 4.4108689,7.1639164 3.9051328,7.4674584 3.4274931,7.7544436 3.2353335,7.8046158 L 2.6483184,7.9586446 Z M 19.263355,4.8018077 11.090298,0.07207141 a 0.5373446,0.5373446 0 0 0 -0.53885,0 L 2.3783918,4.8018077 A 0.54085666,0.54085666 0 0 0 2.1089669,5.2699146 V 8.1011337 C 1.6629357,8.2185367 1.3659161,8.2978088 1.3142387,8.3118571 0.85415936,8.431267 0.57369658,8.6329594 0.45679528,8.9269686 0.28319936,9.3634671 0.5380743,9.8681997 0.8100078,10.304196 c 0.3150816,0.505235 0.6477235,0.813794 1.2989591,1.05161 v 3.373581 c 0,0.193163 0.1028531,0.371275 0.2694249,0.468107 l 8.1730562,4.729736 a 0.53834805,0.53834805 0 0 0 0.539352,0 l 8.172555,-4.729736 c 0.167073,-0.09683 0.269425,-0.274944 0.269425,-0.468107 V 5.2699146 c 0,-0.1931631 -0.102352,-0.3712745 -0.269425,-0.4681069 z"
     fill="#282C4C"
     id="path839"
     inkscape:connector-curvature="0"
     style="opacity:1;fill-rule:evenodd;stroke-width:0.501722;stop-opacity:1" />
</svg>
