<?xml version="1.0" encoding="UTF-8" standalone="no"?>
<svg
   xmlns:dc="http://purl.org/dc/elements/1.1/"
   xmlns:cc="http://creativecommons.org/ns#"
   xmlns:rdf="http://www.w3.org/1999/02/22-rdf-syntax-ns#"
   xmlns:svg="http://www.w3.org/2000/svg"
   xmlns="http://www.w3.org/2000/svg"
   xmlns:sodipodi="http://sodipodi.sourceforge.net/DTD/sodipodi-0.dtd"
   xmlns:inkscape="http://www.inkscape.org/namespaces/inkscape"
   inkscape:version="1.0beta1 (32d4812, 2019-09-19)"
   sodipodi:docname="graduate.svg"
   version="1.1"
   width="20"
   viewBox="0 0 19.999999 20"
   height="20"
   enable-background="new 0 0 512 512"
   id="Capa_1">
  <metadata
     id="metadata844">
    <rdf:RDF>
      <cc:Work
         rdf:about="">
        <dc:format>image/svg+xml</dc:format>
        <dc:type
           rdf:resource="http://purl.org/dc/dcmitype/StillImage" />
        <dc:title></dc:title>
      </cc:Work>
    </rdf:RDF>
  </metadata>
  <defs
     id="defs842" />
  <sodipodi:namedview
     inkscape:current-layer="Capa_1"
     inkscape:window-maximized="0"
     inkscape:window-y="23"
     inkscape:window-x="0"
     inkscape:cy="25.568433"
     inkscape:cx="-2.6394068"
     inkscape:zoom="8.5312913"
     width="20mm"
     units="px"
     showgrid="false"
     id="namedview840"
     inkscape:window-height="907"
     inkscape:window-width="1600"
     inkscape:pageshadow="2"
     inkscape:pageopacity="0"
     guidetolerance="10"
     gridtolerance="10"
     objecttolerance="10"
     borderopacity="1"
     inkscape:document-rotation="0"
     bordercolor="#666666"
     pagecolor="#ffffff" />
  <g
     transform="matrix(0.0390625,0,0,0.0390625,4.6824322e-7,9.375e-5)"
     id="g849">
    <path
       d="m 501.991,128.354 -241,-85.031 c -3.229,-1.14 -6.752,-1.14 -9.981,0 l -241,85.031 C 4.018,130.468 0.008,136.128 0,142.482 c -0.008,6.354 3.989,12.023 9.976,14.151 l 241,85.677 c 1.625,0.578 3.325,0.867 5.024,0.867 1.7,0 3.399,-0.289 5.024,-0.867 l 241,-85.677 c 5.987,-2.128 9.983,-7.797 9.976,-14.151 -0.008,-6.354 -4.018,-12.014 -10.009,-14.128 z"
       id="path833"
       inkscape:connector-curvature="0" />
    <path
       d="m 475.973,328.574 v -130.84 l -30,10.665 v 120.175 c -9.036,5.201 -15.125,14.946 -15.125,26.121 0,11.174 6.089,20.92 15.125,26.121 v 73.716 c 0,8.284 6.716,15 15,15 8.284,0 15,-6.716 15,-15 v -73.715 c 9.036,-5.2 15.125,-14.947 15.125,-26.121 0,-11.175 -6.088,-20.921 -15.125,-26.122 z"
       id="path835"
       inkscape:connector-curvature="0" />
    <path
       d="m 256,273.177 c -5.149,0 -10.22,-0.875 -15.073,-2.6 L 105.444,222.412 v 66.008 c 0,16.149 16.847,29.806 50.073,40.59 28.961,9.4 64.647,14.577 100.483,14.577 35.836,0 71.521,-5.177 100.483,-14.577 33.226,-10.784 50.073,-24.441 50.073,-40.59 v -66.008 l -135.482,48.165 c -4.854,1.725 -9.925,2.6 -15.074,2.6 z"
       id="path837"
       inkscape:connector-curvature="0" />
  </g>
</svg>
